<?xml version="1.0" encoding="utf-8"?>
<!-- Svg Vector Icons : http://www.onlinewebfonts.com/icon -->
<!DOCTYPE svg PUBLIC "-//W3C//DTD SVG 1.1//EN" "http://www.w3.org/Graphics/SVG/1.1/DTD/svg11.dtd">
<svg version="1.1" xmlns="http://www.w3.org/2000/svg" xmlns:xlink="http://www.w3.org/1999/xlink" x="0px" y="0px" viewBox="0 0 256 256" enable-background="new 0 0 256 256" xml:space="preserve">
<metadata> Svg Vector Icons : http://www.onlinewebfonts.com/icon </metadata>
<g><g><g><g><path stroke-width="10" fill-opacity="0" stroke="#000000"  d="M79.5,87.3H68.4v33.4h9.8c5.7,0,10-1.3,13.1-4c3-2.6,4.6-7.1,4.6-13.4C95.8,92.6,90.4,87.3,79.5,87.3z"/><path stroke-width="10" fill-opacity="0" stroke="#000000"  d="M128,10C62.8,10,10,62.8,10,128c0,65.2,52.8,118,118,118c65.2,0,118-52.8,118-118C246,62.8,193.2,10,128,10z M123.8,185.9H98.1c-1.2-1.6-2-3.5-2.3-5.6c-0.3-2.1-0.6-4.3-0.7-6.6l-0.6-22.2c-0.2-4.6-1.3-8.1-3.4-10.7c-2-2.6-5.5-3.9-10.3-3.9H68.4v49H44.9V70.1h43.4c9.8,0,17.4,2.5,22.8,7.4c5.4,4.9,8.2,12.4,8.2,22.5c0,7.8-1.6,14.1-4.7,19.1c-3.2,4.9-8.1,8.1-14.7,9.5v0.3c4,0.6,7.2,1.5,9.6,3c2.4,1.5,4.2,3.6,5.5,6.3c1.3,2.8,2.2,6.2,2.7,10.5c0.5,4.2,0.8,9.4,0.9,15.6c0.1,6.2,0.5,10.9,1.1,14.1c0.6,3.3,2,5.5,4.2,6.6L123.8,185.9L123.8,185.9z M211.1,185.9h-17.3v-10.7h-0.3c-2.8,4.6-6.2,7.8-10.2,9.9c-4,2-8.7,3.1-14.3,3.1c-7.2,0-13-1.3-17.5-4c-4.5-2.6-8-6.6-10.6-11.8c-2.6-5.2-4.3-11.6-5.1-19.2c-0.9-7.6-1.3-16.5-1.3-26.5c0-9.7,0.6-18.3,1.9-25.6c1.3-7.3,3.4-13.5,6.4-18.4c3-4.9,7.1-8.6,12.1-11.1c5-2.5,11.2-3.7,18.8-3.7c12.8,0,22.1,3.2,27.7,9.5c5.7,6.3,8.5,15.4,8.5,27.2h-22.5c0-2-0.2-4.2-0.7-6.6c-0.5-2.3-1.3-4.4-2.4-6.3s-2.5-3.5-4.2-4.7c-1.7-1.2-3.7-1.9-6.1-1.9c-5.7,0-9.7,3.1-12.2,9.4s-3.8,16.7-3.8,31.2c0,7,0.2,13.3,0.7,18.9s1.2,10.3,2.4,14.3c1.2,3.9,2.8,7,4.9,9.1c2.1,2.1,4.9,3.2,8.2,3.2c1.4,0,3-0.4,4.6-1.1s3.3-1.9,4.7-3.4c1.5-1.5,2.7-3.4,3.7-5.8c1-2.3,1.5-5.1,1.5-8.2v-11.8H173v-17.2h38V185.9L211.1,185.9z"/></g></g><g></g><g></g><g></g><g></g><g></g><g></g><g></g><g></g><g></g><g></g><g></g><g></g><g></g><g></g><g></g></g></g>
</svg>